<svg width="86" height="84" viewBox="0 0 86 84" fill="none" xmlns="http://www.w3.org/2000/svg">
<path fill-rule="evenodd" clip-rule="evenodd" d="M64.3258 27.6474C64.6136 28.0562 64.861 28.4969 65.0628 28.9646C76.9666 32.1762 85.73 42.8037 85.73 55.385C85.73 70.5016 73.0797 82.8 57.5306 82.8C49.4127 82.8 42.0865 79.4467 36.9366 74.0915H17.3879C13.1805 74.0915 9.75744 70.7637 9.75744 66.6734C9.75744 64.3242 10.8877 62.228 12.6462 60.8679C10.8877 59.5078 9.75744 57.4115 9.75744 55.0623C9.75744 52.7132 10.8877 50.6169 12.6462 49.2568C10.8877 47.8967 9.75744 45.8004 9.75744 43.4513C9.75744 41.1022 10.8877 39.0059 12.6462 37.6458C10.8877 36.2857 9.75744 34.1894 9.75744 31.8403C9.75744 27.7499 13.1805 24.4221 17.3879 24.4221H21.714C20.8693 23.2284 20.3737 21.7843 20.3737 20.2292C20.3737 18.6741 20.8695 17.23 21.714 16.0363H8.43042C4.22307 16.0363 0.800003 12.7085 0.800003 8.61816C0.800003 4.52785 4.22307 1.2 8.43042 1.2H49.0707C53.278 1.2 56.7011 4.52785 56.7011 8.61816C56.7011 10.1732 56.2053 11.6174 55.3608 12.811H68.6443C72.8517 12.811 76.2747 16.1389 76.2747 20.2292C76.2747 24.3195 72.8517 27.6474 68.6443 27.6474H64.3258ZM72.9572 20.2292C72.9572 17.9173 71.0225 16.0363 68.6443 16.0363H28.0041C25.6259 16.0363 23.6912 17.9173 23.6912 20.2292C23.6912 22.5411 25.6259 24.4221 28.0041 24.4221H58.0281H68.6443C71.0225 24.4221 72.9572 22.5411 72.9572 20.2292ZM4.11757 8.61816C4.11757 10.9301 6.05221 12.811 8.43042 12.811H49.0707C51.4489 12.811 53.3835 10.9301 53.3835 8.61816C53.3835 6.30628 51.4489 4.42529 49.0707 4.42529H8.43042C6.05221 4.42529 4.11757 6.30628 4.11757 8.61816ZM58.0281 27.6474H17.3879C15.0098 27.6474 13.075 29.5284 13.075 31.8403C13.075 34.1521 15.0098 36.0331 17.3879 36.0331H37.5756C42.6837 31.0549 49.7435 27.9701 57.5306 27.9701C58.3321 27.9701 59.1254 28.0046 59.91 28.0686C59.336 27.7983 58.6963 27.6474 58.0281 27.6474ZM34.7412 39.2584H17.3879C15.0097 39.2584 13.075 41.1394 13.075 43.4513C13.075 45.7633 15.0097 47.6442 17.3879 47.6442H30.4777C31.4023 44.5955 32.8582 41.7666 34.7412 39.2584ZM29.7159 50.8695H17.3879C15.0097 50.8695 13.075 52.7503 13.075 55.0623C13.075 57.3744 15.0097 59.2552 17.3879 59.2552H29.6136C29.429 57.9904 29.3313 56.6987 29.3313 55.385C29.3313 53.847 29.4643 52.3391 29.7159 50.8695ZM13.075 66.6734C13.075 68.9854 15.0097 70.8663 17.3879 70.8663H34.2708C32.4876 68.3418 31.1279 65.5144 30.2909 62.4805H17.3879C15.0097 62.4805 13.075 64.3613 13.075 66.6734ZM32.6488 55.385C32.6488 68.7232 43.8108 79.5747 57.5306 79.5747C71.2504 79.5747 82.4124 68.7232 82.4124 55.385C82.4124 42.0468 71.2504 31.1954 57.5306 31.1954C43.8108 31.1954 32.6488 42.0468 32.6488 55.385ZM53.2994 49.8726C53.2994 51.832 55.194 53.4262 57.5227 53.4262C61.9685 53.4262 65.5854 56.6948 65.5854 60.7125C65.5854 64.1325 62.9642 67.008 59.4424 67.7885V68.5947C59.4424 69.6253 58.5828 70.461 57.5227 70.461C56.4627 70.461 55.603 69.6253 55.603 68.5947V67.7885C52.0812 67.008 49.4601 64.1325 49.4601 60.7125C49.4601 59.6819 50.3197 58.8462 51.3798 58.8462C52.4398 58.8462 53.2994 59.6819 53.2994 60.7125C53.2994 62.6721 55.194 64.2663 57.5227 64.2663C59.8515 64.2663 61.746 62.6721 61.746 60.7125C61.746 58.7529 59.8515 57.1587 57.5227 57.1587C53.0769 57.1587 49.4601 53.8901 49.4601 49.8726C49.4601 46.4526 52.0812 43.5771 55.603 42.7966V41.8259C55.603 40.7954 56.4627 39.9597 57.5227 39.9597C58.5828 39.9597 59.4424 40.7954 59.4424 41.8259V42.7966C62.9642 43.5771 65.5854 46.4526 65.5854 49.8726C65.5854 50.9031 64.7257 51.7389 63.6657 51.7389C62.6056 51.7389 61.746 50.9031 61.746 49.8726C61.746 47.913 59.8515 46.3188 57.5227 46.3188C55.194 46.3188 53.2994 47.913 53.2994 49.8726Z" fill="#FF872C"/>
<path d="M65.0628 28.9646L64.8333 29.0637L64.8812 29.1745L64.9977 29.206L65.0628 28.9646ZM64.3258 27.6474V27.3974H63.8441L64.1214 27.7913L64.3258 27.6474ZM36.9366 74.0915L37.1168 73.9183L37.0431 73.8415H36.9366V74.0915ZM12.6462 60.8679L12.7992 61.0656L13.0548 60.8679L12.7992 60.6701L12.6462 60.8679ZM12.6462 49.2568L12.7992 49.4546L13.0548 49.2568L12.7992 49.0591L12.6462 49.2568ZM12.6462 37.6458L12.7992 37.8435L13.0548 37.6458L12.7992 37.448L12.6462 37.6458ZM21.714 24.4221V24.6721H22.1971L21.918 24.2777L21.714 24.4221ZM21.714 16.0363L21.9181 16.1807L22.1971 15.7863H21.714V16.0363ZM55.3608 12.811L55.1567 12.6667L54.8777 13.061H55.3608V12.811ZM37.5756 36.0331V36.2831H37.6773L37.7501 36.2122L37.5756 36.0331ZM59.91 28.0686L59.8897 28.3178L60.0165 27.8424L59.91 28.0686ZM34.7412 39.2584L34.9412 39.4085L35.2415 39.0084H34.7412V39.2584ZM30.4777 47.6442V47.8942H30.6631L30.7169 47.7167L30.4777 47.6442ZM29.7159 50.8695L29.9624 50.9117L30.0124 50.6195H29.7159V50.8695ZM29.6136 59.2552V59.5052H29.9027L29.861 59.2191L29.6136 59.2552ZM34.2708 70.8663V71.1163H34.7535L34.475 70.722L34.2708 70.8663ZM30.2909 62.4805L30.5319 62.414L30.4812 62.2305H30.2909V62.4805ZM59.4424 67.7885L59.3883 67.5444L59.1924 67.5878V67.7885H59.4424ZM55.603 67.7885H55.853V67.5878L55.6571 67.5444L55.603 67.7885ZM55.603 42.7966L55.6571 43.0407L55.853 42.9972V42.7966H55.603ZM59.4424 42.7966H59.1924V42.9972L59.3883 43.0407L59.4424 42.7966ZM65.2924 28.8655C65.0837 28.3821 64.8279 27.9263 64.5303 27.5035L64.1214 27.7913C64.3993 28.186 64.6382 28.6118 64.8333 29.0637L65.2924 28.8655ZM85.98 55.385C85.98 42.6833 77.1336 31.9623 65.128 28.7232L64.9977 29.206C76.7996 32.3901 85.48 42.924 85.48 55.385H85.98ZM57.5306 83.05C73.2111 83.05 85.98 70.6463 85.98 55.385H85.48C85.48 70.357 72.9484 82.55 57.5306 82.55V83.05ZM36.7564 74.2648C41.9521 79.6676 49.3428 83.05 57.5306 83.05V82.55C49.4826 82.55 42.2209 79.2258 37.1168 73.9183L36.7564 74.2648ZM17.3879 74.3415H36.9366V73.8415H17.3879V74.3415ZM9.50744 66.6734C9.50744 70.9084 13.0491 74.3415 17.3879 74.3415V73.8415C13.3119 73.8415 10.0074 70.619 10.0074 66.6734H9.50744ZM12.4933 60.6701C10.6778 62.0743 9.50744 64.2416 9.50744 66.6734H10.0074C10.0074 64.4069 11.0976 62.3817 12.7992 61.0656L12.4933 60.6701ZM9.50744 55.0623C9.50744 57.4941 10.6778 59.6615 12.4933 61.0656L12.7992 60.6701C11.0976 59.3541 10.0074 57.3289 10.0074 55.0623H9.50744ZM12.4933 49.0591C10.6778 50.4632 9.50744 52.6306 9.50744 55.0623H10.0074C10.0074 52.7958 11.0976 50.7706 12.7992 49.4546L12.4933 49.0591ZM9.50744 43.4513C9.50744 45.883 10.6778 48.0504 12.4933 49.4546L12.7992 49.0591C11.0976 47.743 10.0074 45.7178 10.0074 43.4513H9.50744ZM12.4933 37.448C10.6778 38.8522 9.50744 41.0195 9.50744 43.4513H10.0074C10.0074 41.1848 11.0976 39.1596 12.7992 37.8435L12.4933 37.448ZM9.50744 31.8403C9.50744 34.272 10.6778 36.4394 12.4933 37.8435L12.7992 37.448C11.0976 36.132 10.0074 34.1068 10.0074 31.8403H9.50744ZM17.3879 24.1721C13.0491 24.1721 9.50744 27.6053 9.50744 31.8403H10.0074C10.0074 27.8946 13.3119 24.6721 17.3879 24.6721V24.1721ZM21.714 24.1721H17.3879V24.6721H21.714V24.1721ZM20.1237 20.2292C20.1237 21.8384 20.6368 23.3326 21.5099 24.5665L21.918 24.2777C21.1018 23.1242 20.6237 21.7301 20.6237 20.2292H20.1237ZM21.5099 15.8919C20.637 17.1258 20.1237 18.62 20.1237 20.2292H20.6237C20.6237 18.7283 21.102 17.3342 21.9181 16.1807L21.5099 15.8919ZM8.43042 16.2863H21.714V15.7863H8.43042V16.2863ZM0.550003 8.61816C0.550003 12.8531 4.0917 16.2863 8.43042 16.2863V15.7863C4.35445 15.7863 1.05 12.5638 1.05 8.61816H0.550003ZM8.43042 0.949997C4.0917 0.949997 0.550003 4.38318 0.550003 8.61816H1.05C1.05 4.67252 4.35445 1.45 8.43042 1.45V0.949997ZM49.0707 0.949997H8.43042V1.45H49.0707V0.949997ZM56.9511 8.61816C56.9511 4.38318 53.4094 0.949997 49.0707 0.949997V1.45C53.1466 1.45 56.4511 4.67252 56.4511 8.61816H56.9511ZM55.5649 12.9554C56.4378 11.7216 56.9511 10.2274 56.9511 8.61816H56.4511C56.4511 10.1191 55.9727 11.5132 55.1567 12.6667L55.5649 12.9554ZM68.6443 12.561H55.3608V13.061H68.6443V12.561ZM76.5247 20.2292C76.5247 15.9942 72.983 12.561 68.6443 12.561V13.061C72.7203 13.061 76.0247 16.2836 76.0247 20.2292H76.5247ZM68.6443 27.8974C72.983 27.8974 76.5247 24.4642 76.5247 20.2292H76.0247C76.0247 24.1748 72.7203 27.3974 68.6443 27.3974V27.8974ZM64.3258 27.8974H68.6443V27.3974H64.3258V27.8974ZM68.6443 16.2863C70.8911 16.2863 72.7072 18.062 72.7072 20.2292H73.2072C73.2072 17.7727 71.1539 15.7863 68.6443 15.7863V16.2863ZM28.0041 16.2863H68.6443V15.7863H28.0041V16.2863ZM23.9412 20.2292C23.9412 18.062 25.7573 16.2863 28.0041 16.2863V15.7863C25.4945 15.7863 23.4412 17.7727 23.4412 20.2292H23.9412ZM28.0041 24.1721C25.7573 24.1721 23.9412 22.3964 23.9412 20.2292H23.4412C23.4412 22.6858 25.4945 24.6721 28.0041 24.6721V24.1721ZM58.0281 24.1721H28.0041V24.6721H58.0281V24.1721ZM68.6443 24.1721H58.0281V24.6721H68.6443V24.1721ZM72.7072 20.2292C72.7072 22.3964 70.8911 24.1721 68.6443 24.1721V24.6721C71.1539 24.6721 73.2072 22.6858 73.2072 20.2292H72.7072ZM8.43042 12.561C6.1836 12.561 4.36757 10.7854 4.36757 8.61816H3.86757C3.86757 11.0747 5.92083 13.061 8.43042 13.061V12.561ZM49.0707 12.561H8.43042V13.061H49.0707V12.561ZM53.1335 8.61816C53.1335 10.7854 51.3175 12.561 49.0707 12.561V13.061C51.5802 13.061 53.6335 11.0747 53.6335 8.61816H53.1335ZM49.0707 4.67529C51.3175 4.67529 53.1335 6.45094 53.1335 8.61816H53.6335C53.6335 6.16161 51.5802 4.17529 49.0707 4.17529V4.67529ZM8.43042 4.67529H49.0707V4.17529H8.43042V4.67529ZM4.36757 8.61816C4.36757 6.45094 6.1836 4.67529 8.43042 4.67529V4.17529C5.92083 4.17529 3.86757 6.16161 3.86757 8.61816H4.36757ZM17.3879 27.8974H58.0281V27.3974H17.3879V27.8974ZM13.325 31.8403C13.325 29.673 15.1412 27.8974 17.3879 27.8974V27.3974C14.8784 27.3974 12.825 29.3837 12.825 31.8403H13.325ZM17.3879 35.7831C15.1412 35.7831 13.325 34.0075 13.325 31.8403H12.825C12.825 34.2968 14.8784 36.2831 17.3879 36.2831V35.7831ZM37.5756 35.7831H17.3879V36.2831H37.5756V35.7831ZM57.5306 27.7201C49.6764 27.7201 42.5545 30.8316 37.4011 35.8541L37.7501 36.2122C42.8128 31.2781 49.8105 28.2201 57.5306 28.2201V27.7201ZM59.9303 27.8194C59.1394 27.7549 58.3393 27.7201 57.5306 27.7201V28.2201C58.325 28.2201 59.1114 28.2543 59.8897 28.3178L59.9303 27.8194ZM58.0281 27.8974C58.6584 27.8974 59.2619 28.0397 59.8035 28.2948L60.0165 27.8424C59.4102 27.5569 58.7341 27.3974 58.0281 27.3974V27.8974ZM17.3879 39.5084H34.7412V39.0084H17.3879V39.5084ZM13.325 43.4513C13.325 41.2841 15.141 39.5084 17.3879 39.5084V39.0084C14.8783 39.0084 12.825 40.9947 12.825 43.4513H13.325ZM17.3879 47.3942C15.141 47.3942 13.325 45.6187 13.325 43.4513H12.825C12.825 45.908 14.8783 47.8942 17.3879 47.8942V47.3942ZM30.4777 47.3942H17.3879V47.8942H30.4777V47.3942ZM34.5413 39.1083C32.6412 41.6392 31.1717 44.4942 30.2384 47.5716L30.7169 47.7167C31.6328 44.6967 33.0752 41.894 34.9412 39.4085L34.5413 39.1083ZM17.3879 51.1195H29.7159V50.6195H17.3879V51.1195ZM13.325 55.0623C13.325 52.895 15.141 51.1195 17.3879 51.1195V50.6195C14.8783 50.6195 12.825 52.6056 12.825 55.0623H13.325ZM17.3879 59.0052C15.141 59.0052 13.325 57.2297 13.325 55.0623H12.825C12.825 57.5191 14.8783 59.5052 17.3879 59.5052V59.0052ZM29.6136 59.0052H17.3879V59.5052H29.6136V59.0052ZM29.0813 55.385C29.0813 56.7111 29.1799 58.0149 29.3662 59.2913L29.861 59.2191C29.6781 57.9659 29.5813 56.6863 29.5813 55.385H29.0813ZM29.4695 50.8273C29.2156 52.3105 29.0813 53.8326 29.0813 55.385H29.5813C29.5813 53.8615 29.7131 52.3676 29.9624 50.9117L29.4695 50.8273ZM17.3879 70.6163C15.141 70.6163 13.325 68.8408 13.325 66.6734H12.825C12.825 69.1301 14.8783 71.1163 17.3879 71.1163V70.6163ZM34.2708 70.6163H17.3879V71.1163H34.2708V70.6163ZM30.0499 62.547C30.8948 65.6095 32.2672 68.4631 34.0666 71.0105L34.475 70.722C32.708 68.2205 31.361 65.4193 30.5319 62.414L30.0499 62.547ZM17.3879 62.7305H30.2909V62.2305H17.3879V62.7305ZM13.325 66.6734C13.325 64.506 15.141 62.7305 17.3879 62.7305V62.2305C14.8783 62.2305 12.825 64.2167 12.825 66.6734H13.325ZM57.5306 79.3247C43.9422 79.3247 32.8988 68.5785 32.8988 55.385H32.3988C32.3988 68.8679 43.6794 79.8247 57.5306 79.8247V79.3247ZM82.1624 55.385C82.1624 68.5785 71.1191 79.3247 57.5306 79.3247V79.8247C71.3818 79.8247 82.6624 68.8679 82.6624 55.385H82.1624ZM57.5306 31.4454C71.1191 31.4454 82.1624 42.1915 82.1624 55.385H82.6624C82.6624 41.9022 71.3818 30.9454 57.5306 30.9454V31.4454ZM32.8988 55.385C32.8988 42.1915 43.9422 31.4454 57.5306 31.4454V30.9454C43.6794 30.9454 32.3988 41.9022 32.3988 55.385H32.8988ZM57.5227 53.1762C55.2898 53.1762 53.5494 51.6552 53.5494 49.8726H53.0494C53.0494 52.0088 55.0981 53.6762 57.5227 53.6762V53.1762ZM65.8354 60.7125C65.8354 56.5335 62.0822 53.1762 57.5227 53.1762V53.6762C61.8548 53.6762 65.3354 56.856 65.3354 60.7125H65.8354ZM59.4965 68.0326C63.1132 67.2311 65.8354 64.2686 65.8354 60.7125H65.3354C65.3354 63.9963 62.8153 66.785 59.3883 67.5444L59.4965 68.0326ZM59.6924 68.5947V67.7885H59.1924V68.5947H59.6924ZM57.5227 70.711C58.7141 70.711 59.6924 69.77 59.6924 68.5947H59.1924C59.1924 69.4806 58.4514 70.211 57.5227 70.211V70.711ZM55.353 68.5947C55.353 69.77 56.3313 70.711 57.5227 70.711V70.211C56.594 70.211 55.853 69.4806 55.853 68.5947H55.353ZM55.353 67.7885V68.5947H55.853V67.7885H55.353ZM49.2101 60.7125C49.2101 64.2686 51.9323 67.2311 55.5489 68.0326L55.6571 67.5444C52.2301 66.785 49.7101 63.9963 49.7101 60.7125H49.2101ZM51.3798 58.5962C50.1883 58.5962 49.2101 59.5373 49.2101 60.7125H49.7101C49.7101 59.8266 50.4511 59.0962 51.3798 59.0962V58.5962ZM53.5494 60.7125C53.5494 59.5373 52.5712 58.5962 51.3798 58.5962V59.0962C52.3084 59.0962 53.0494 59.8266 53.0494 60.7125H53.5494ZM57.5227 64.0163C55.2899 64.0163 53.5494 62.4953 53.5494 60.7125H53.0494C53.0494 62.8489 55.0981 64.5163 57.5227 64.5163V64.0163ZM61.496 60.7125C61.496 62.4953 59.7556 64.0163 57.5227 64.0163V64.5163C59.9474 64.5163 61.996 62.8489 61.996 60.7125H61.496ZM57.5227 57.4087C59.7556 57.4087 61.496 58.9297 61.496 60.7125H61.996C61.996 58.5761 59.9474 56.9087 57.5227 56.9087V57.4087ZM49.2101 49.8726C49.2101 54.0514 52.9633 57.4087 57.5227 57.4087V56.9087C53.1906 56.9087 49.7101 53.7288 49.7101 49.8726H49.2101ZM55.5489 42.5525C51.9323 43.354 49.2101 46.3164 49.2101 49.8726H49.7101C49.7101 46.5888 52.2301 43.8001 55.6571 43.0407L55.5489 42.5525ZM55.353 41.8259V42.7966H55.853V41.8259H55.353ZM57.5227 39.7097C56.3313 39.7097 55.353 40.6507 55.353 41.8259H55.853C55.853 40.94 56.594 40.2097 57.5227 40.2097V39.7097ZM59.6924 41.8259C59.6924 40.6507 58.7141 39.7097 57.5227 39.7097V40.2097C58.4514 40.2097 59.1924 40.94 59.1924 41.8259H59.6924ZM59.6924 42.7966V41.8259H59.1924V42.7966H59.6924ZM65.8354 49.8726C65.8354 46.3164 63.1132 43.354 59.4965 42.5525L59.3883 43.0407C62.8153 43.8001 65.3354 46.5888 65.3354 49.8726H65.8354ZM63.6657 51.9889C64.8571 51.9889 65.8354 51.0478 65.8354 49.8726H65.3354C65.3354 50.7585 64.5944 51.4889 63.6657 51.4889V51.9889ZM61.496 49.8726C61.496 51.0478 62.4743 51.9889 63.6657 51.9889V51.4889C62.737 51.4889 61.996 50.7585 61.996 49.8726H61.496ZM57.5227 46.5688C59.7556 46.5688 61.496 48.0898 61.496 49.8726H61.996C61.996 47.7362 59.9474 46.0688 57.5227 46.0688V46.5688ZM53.5494 49.8726C53.5494 48.0898 55.2899 46.5688 57.5227 46.5688V46.0688C55.0981 46.0688 53.0494 47.7362 53.0494 49.8726H53.5494Z" fill="#FF872C"/>
</svg>
